<?xml version="1.0" encoding="utf-8"?>
<!-- Generator: Adobe Illustrator 18.0.0, SVG Export Plug-In . SVG Version: 6.00 Build 0)  -->
<!DOCTYPE svg PUBLIC "-//W3C//DTD SVG 1.1//EN" "http://www.w3.org/Graphics/SVG/1.1/DTD/svg11.dtd">
<svg version="1.1" id="Layer_1" xmlns="http://www.w3.org/2000/svg" xmlns:xlink="http://www.w3.org/1999/xlink" x="0px" y="0px"
	 viewBox="25 -2 70 70" enable-background="new 25 -2 70 70" xml:space="preserve">
<g>
	<g>
		<path fill="#FFFFFF" d="M79.4,22.9H40.6c-1,0-1.8-0.9-1.8-2.4s0.8-2.4,1.8-2.4h38.9c1,0,1.8,0.9,1.8,2.4S80.5,22.9,79.4,22.9z"/>
	</g>
	<g>
		<path fill="#FFFFFF" d="M79.4,35.4H40.6c-1,0-1.8-1.2-1.8-2.3s0.8-2.3,1.8-2.3h38.9c1,0,1.8,1.2,1.8,2.3S80.5,35.4,79.4,35.4z"/>
	</g>
	<g>
		<path fill="#FFFFFF" d="M79.4,47.8H40.6c-1,0-1.8-1.2-1.8-2.3c0-1,0.8-2.3,1.8-2.3h38.9c1,0,1.8,1.2,1.8,2.3
			C81.2,46.5,80.5,47.8,79.4,47.8z"/>
	</g>
</g>
</svg>
