<?xml version="1.0" encoding="utf-8"?>
<!-- Generator: Adobe Illustrator 18.0.0, SVG Export Plug-In . SVG Version: 6.00 Build 0)  -->
<!DOCTYPE svg PUBLIC "-//W3C//DTD SVG 1.1//EN" "http://www.w3.org/Graphics/SVG/1.1/DTD/svg11.dtd">
<svg version="1.1" id="Layer_1" xmlns="http://www.w3.org/2000/svg" xmlns:xlink="http://www.w3.org/1999/xlink" x="0px" y="0px"
	 viewBox="0 0 440 130" enable-background="new 0 0 440 130" xml:space="preserve">
<g>
	<g>
		<path fill="#FFFFFF" d="M65.4,117.6c0.3,0.2,0.5,0.4,0.8,0.5c0.2,0.1,0.5,0.2,0.8,0.2c0.2,0,0.5,0,0.7-0.1
			c0.2-0.1,0.4-0.2,0.6-0.5c0.2-0.2,0.3-0.6,0.4-1c0.1-0.4,0.1-1,0.1-1.7v-11.6H70v11.5c0,0.7,0,1.3-0.1,1.9c-0.1,0.6-0.2,1-0.4,1.4
			c-0.2,0.4-0.5,0.7-0.9,0.9c-0.4,0.2-0.9,0.3-1.5,0.3c-0.5,0-0.9-0.1-1.3-0.3c-0.4-0.2-0.7-0.4-0.9-0.6L65.4,117.6z M68.7,99.4h1.5
			v1.6h-1.5V99.4z"/>
		<path fill="#FFFFFF" d="M80.9,114.7c-0.8,0-1.5-0.2-2.2-0.5c-0.7-0.3-1.3-0.7-1.8-1.3c-0.5-0.5-0.9-1.2-1.2-1.9
			c-0.3-0.7-0.4-1.5-0.4-2.3c0-0.8,0.1-1.6,0.4-2.3c0.3-0.7,0.7-1.3,1.2-1.9c0.5-0.5,1.1-1,1.8-1.3c0.7-0.3,1.4-0.5,2.2-0.5
			c0.8,0,1.5,0.2,2.2,0.5c0.7,0.3,1.3,0.7,1.8,1.3c0.5,0.5,0.9,1.2,1.2,1.9c0.3,0.7,0.4,1.5,0.4,2.3c0,0.8-0.1,1.6-0.4,2.3
			c-0.3,0.7-0.7,1.3-1.2,1.9c-0.5,0.5-1.1,1-1.8,1.3S81.7,114.7,80.9,114.7z M80.9,113.7c0.6,0,1.2-0.1,1.8-0.4
			c0.6-0.3,1.1-0.6,1.5-1c0.4-0.4,0.7-0.9,1-1.5c0.2-0.6,0.4-1.2,0.4-1.9c0-0.6-0.1-1.3-0.4-1.9c-0.2-0.6-0.6-1.1-1-1.6
			c-0.4-0.5-0.9-0.8-1.5-1.1c-0.6-0.3-1.2-0.4-1.8-0.4c-0.7,0-1.3,0.1-1.8,0.4c-0.6,0.3-1,0.6-1.5,1c-0.4,0.4-0.7,0.9-1,1.5
			c-0.2,0.6-0.4,1.2-0.4,1.9c0,0.7,0.1,1.3,0.4,1.9c0.2,0.6,0.6,1.1,1,1.5c0.4,0.5,0.9,0.8,1.5,1.1
			C79.7,113.6,80.3,113.7,80.9,113.7z"/>
		<path fill="#FFFFFF" d="M91.8,103.3h1.1v6.2c0,0.8,0.1,1.5,0.2,2.1c0.1,0.5,0.3,1,0.6,1.3c0.3,0.3,0.6,0.5,1,0.7
			c0.4,0.1,0.9,0.2,1.4,0.2c0.7,0,1.3-0.1,1.8-0.4c0.5-0.3,0.9-0.7,1.3-1.1c0.3-0.5,0.6-1,0.7-1.5c0.2-0.5,0.2-1.1,0.2-1.6v-5.7h1.1
			v8.8c0,0.3,0,0.6,0,0.8c0,0.2,0,0.4,0,0.6s0,0.3,0,0.5c0,0.2,0,0.3,0,0.5h-1c0-0.2,0-0.3,0-0.5c0-0.1,0-0.3,0-0.5
			c0-0.2,0-0.4,0-0.6s0-0.5,0-0.8c-0.1,0.2-0.3,0.5-0.5,0.8c-0.2,0.3-0.5,0.6-0.8,0.9c-0.3,0.3-0.7,0.5-1.2,0.7
			c-0.5,0.2-1,0.3-1.7,0.3c-0.8,0-1.5-0.1-2-0.3c-0.5-0.2-1-0.6-1.3-1c-0.3-0.4-0.6-0.9-0.7-1.5c-0.1-0.6-0.2-1.3-0.2-2V103.3z"/>
		<path fill="#FFFFFF" d="M107.1,105.7c0-0.3,0-0.6,0-0.8c0-0.2,0-0.4,0-0.6c0-0.2,0-0.3,0-0.5c0-0.2,0-0.3,0-0.5h1
			c0,0.2,0,0.3,0,0.5c0,0.2,0,0.3,0,0.5c0,0.2,0,0.4,0,0.6c0,0.2,0,0.5,0,0.8c0.1-0.2,0.3-0.5,0.5-0.8c0.2-0.3,0.5-0.6,0.8-0.8
			c0.3-0.3,0.7-0.5,1.2-0.7c0.5-0.2,1-0.3,1.6-0.3c0.4,0,0.7,0.1,0.9,0.2l-0.3,1c-0.1,0-0.2-0.1-0.4-0.1c-0.2,0-0.3,0-0.4,0
			c-0.6,0-1.1,0.1-1.6,0.4c-0.5,0.3-0.9,0.6-1.2,1c-0.3,0.4-0.6,0.9-0.8,1.4c-0.2,0.5-0.3,1.1-0.3,1.6v5.7h-1.1V105.7z"/>
		<path fill="#FFFFFF" d="M117.7,105.7c0-0.3,0-0.6,0-0.8c0-0.2,0-0.4,0-0.6c0-0.2,0-0.3,0-0.5c0-0.2,0-0.3,0-0.5h1
			c0,0.2,0,0.3,0,0.5c0,0.1,0,0.3,0,0.5c0,0.2,0,0.4,0,0.6c0,0.2,0,0.5,0,0.8c0.1-0.2,0.3-0.5,0.5-0.8c0.2-0.3,0.5-0.6,0.9-0.9
			c0.3-0.3,0.8-0.5,1.2-0.7c0.5-0.2,1-0.3,1.7-0.3c0.8,0,1.5,0.1,2,0.3s1,0.6,1.3,1c0.3,0.4,0.6,0.9,0.7,1.5c0.1,0.6,0.2,1.3,0.2,2
			v6.5h-1.1v-6.2c0-0.8-0.1-1.5-0.2-2.1c-0.1-0.5-0.4-1-0.6-1.3c-0.3-0.3-0.6-0.5-1-0.7c-0.4-0.1-0.9-0.2-1.4-0.2
			c-0.7,0-1.3,0.1-1.8,0.4c-0.5,0.3-0.9,0.7-1.3,1.1c-0.3,0.5-0.6,1-0.8,1.5c-0.2,0.6-0.3,1.1-0.3,1.6v5.7h-1.1V105.7z"/>
		<path fill="#FFFFFF" d="M142.6,112.8c-0.5,0.6-1.1,1.1-2,1.4c-0.8,0.3-1.7,0.5-2.6,0.5c-0.8,0-1.6-0.1-2.3-0.4
			c-0.7-0.3-1.3-0.7-1.8-1.2c-0.5-0.5-0.9-1.1-1.2-1.9c-0.3-0.7-0.4-1.5-0.4-2.4c0-0.8,0.1-1.6,0.4-2.3c0.3-0.7,0.6-1.3,1.1-1.9
			c0.5-0.5,1-1,1.7-1.3c0.7-0.3,1.4-0.5,2.2-0.5c0.8,0,1.5,0.1,2.1,0.4c0.7,0.3,1.2,0.7,1.7,1.2c0.5,0.5,0.8,1.2,1.1,1.9
			c0.3,0.8,0.4,1.6,0.4,2.6h-9.5c0,0.6,0.1,1.2,0.4,1.8c0.2,0.6,0.5,1,0.9,1.5c0.4,0.4,0.9,0.7,1.4,1c0.5,0.2,1.1,0.4,1.8,0.4
			c0.3,0,0.7,0,1.1-0.1c0.4-0.1,0.7-0.2,1.1-0.3c0.3-0.1,0.6-0.3,0.9-0.5c0.3-0.2,0.5-0.4,0.7-0.7L142.6,112.8z M141.9,108.2
			c-0.1-1.4-0.6-2.4-1.3-3.1c-0.7-0.7-1.7-1.1-2.8-1.1c-0.6,0-1.1,0.1-1.6,0.3c-0.5,0.2-0.9,0.5-1.3,0.9c-0.4,0.4-0.6,0.8-0.9,1.3
			c-0.2,0.5-0.3,1.1-0.4,1.6H141.9z"/>
		<path fill="#FFFFFF" d="M147.2,118c0.1,0.1,0.3,0.3,0.6,0.4c0.2,0.1,0.5,0.2,0.9,0.2c0.5,0,0.9-0.2,1.1-0.5
			c0.3-0.3,0.5-0.8,0.8-1.5l0.9-2.3l-5-11h1.2l4.3,9.6l3.7-9.6h1.2l-5.5,13.8c-0.1,0.2-0.2,0.5-0.4,0.8c-0.1,0.3-0.3,0.6-0.5,0.8
			c-0.2,0.3-0.5,0.5-0.8,0.6c-0.3,0.2-0.7,0.3-1.1,0.3c-0.5,0-0.9-0.1-1.2-0.2c-0.3-0.1-0.6-0.3-0.8-0.5L147.2,118z"/>
		<path fill="#FFFFFF" d="M161.1,112.3c0.5,0.5,1,0.8,1.6,1.1c0.6,0.3,1.3,0.4,2.1,0.4c0.5,0,0.9,0,1.3-0.1c0.4-0.1,0.8-0.2,1.1-0.4
			c0.3-0.2,0.5-0.4,0.7-0.6c0.2-0.3,0.3-0.6,0.3-0.9c0-0.4-0.1-0.7-0.2-1c-0.2-0.3-0.4-0.5-0.7-0.6c-0.3-0.2-0.7-0.3-1.2-0.4
			c-0.5-0.1-1-0.3-1.6-0.4c-0.5-0.1-1-0.2-1.4-0.4c-0.4-0.2-0.8-0.3-1.1-0.6c-0.3-0.2-0.5-0.5-0.7-0.9c-0.2-0.3-0.3-0.8-0.3-1.3
			c0-0.5,0.1-0.9,0.3-1.3c0.2-0.4,0.5-0.7,0.9-1c0.4-0.3,0.8-0.4,1.3-0.6c0.5-0.1,1-0.2,1.5-0.2c0.9,0,1.6,0.2,2.3,0.5
			s1.2,0.7,1.6,1.2l-0.8,0.7c-0.4-0.4-0.8-0.8-1.3-1c-0.5-0.3-1.1-0.4-1.8-0.4c-0.4,0-0.7,0-1.1,0.1c-0.4,0.1-0.7,0.2-1,0.3
			c-0.3,0.2-0.5,0.4-0.7,0.6c-0.2,0.3-0.3,0.6-0.3,1.1c0,0.4,0.1,0.7,0.3,0.9c0.2,0.2,0.5,0.4,0.8,0.6c0.3,0.2,0.7,0.3,1.1,0.4
			c0.4,0.1,0.8,0.2,1.3,0.3c0.5,0.1,0.9,0.2,1.4,0.4c0.5,0.1,0.9,0.3,1.3,0.6c0.4,0.2,0.7,0.5,0.9,0.9c0.2,0.4,0.4,0.8,0.4,1.4
			c0,0.6-0.1,1.1-0.4,1.5s-0.6,0.7-1,1c-0.4,0.3-0.9,0.5-1.4,0.6c-0.5,0.1-1.1,0.2-1.6,0.2c-1,0-1.9-0.2-2.7-0.5
			c-0.7-0.3-1.4-0.7-1.9-1.2L161.1,112.3z"/>
		<path fill="#FFFFFF" d="M181.4,98.3h1.1v7c0.1-0.2,0.3-0.5,0.5-0.8c0.2-0.3,0.5-0.5,0.8-0.7c0.3-0.2,0.7-0.4,1.1-0.6
			c0.4-0.1,1-0.2,1.6-0.2c0.9,0,1.6,0.2,2.2,0.4c0.6,0.3,1.1,0.7,1.6,1.2c0.4,0.5,0.7,1.1,0.9,1.9c0.2,0.7,0.3,1.5,0.3,2.3
			c0,0.9-0.2,1.8-0.5,2.5c-0.3,0.7-0.7,1.3-1.3,1.8c-0.6,0.5-1.2,0.9-2,1.1c-0.7,0.3-1.6,0.4-2.4,0.4c-0.8,0-1.6-0.1-2.3-0.2
			c-0.7-0.1-1.3-0.3-1.7-0.5V98.3z M182.5,113.3c0.2,0.1,0.5,0.2,1,0.3c0.5,0.1,1.1,0.2,2,0.2c0.7,0,1.4-0.1,2-0.3
			c0.6-0.2,1.1-0.5,1.6-0.9s0.8-0.9,1.1-1.5c0.2-0.6,0.4-1.3,0.4-2.1c0-0.6-0.1-1.3-0.2-1.9c-0.1-0.6-0.4-1.1-0.7-1.5
			c-0.3-0.4-0.7-0.8-1.2-1c-0.5-0.3-1.1-0.4-1.8-0.4c-0.7,0-1.3,0.1-1.8,0.4c-0.5,0.3-0.9,0.7-1.2,1.1c-0.3,0.4-0.6,0.9-0.7,1.4
			c-0.2,0.5-0.2,1-0.2,1.5V113.3z"/>
		<path fill="#FFFFFF" d="M206.4,112.8c-0.5,0.6-1.1,1.1-2,1.4c-0.8,0.3-1.7,0.5-2.6,0.5c-0.8,0-1.6-0.1-2.3-0.4
			c-0.7-0.3-1.3-0.7-1.8-1.2c-0.5-0.5-0.9-1.1-1.2-1.9c-0.3-0.7-0.4-1.5-0.4-2.4c0-0.8,0.1-1.6,0.4-2.3c0.3-0.7,0.6-1.3,1.1-1.9
			c0.5-0.5,1-1,1.7-1.3c0.7-0.3,1.4-0.5,2.2-0.5c0.8,0,1.5,0.1,2.1,0.4c0.7,0.3,1.2,0.7,1.7,1.2c0.5,0.5,0.8,1.2,1.1,1.9
			c0.3,0.8,0.4,1.6,0.4,2.6h-9.5c0,0.6,0.1,1.2,0.4,1.8c0.2,0.6,0.5,1,0.9,1.5c0.4,0.4,0.9,0.7,1.4,1c0.5,0.2,1.1,0.4,1.8,0.4
			c0.3,0,0.7,0,1.1-0.1c0.4-0.1,0.7-0.2,1.1-0.3c0.3-0.1,0.6-0.3,0.9-0.5c0.3-0.2,0.5-0.4,0.7-0.7L206.4,112.8z M205.7,108.2
			c-0.1-1.4-0.6-2.4-1.3-3.1c-0.7-0.7-1.7-1.1-2.8-1.1c-0.6,0-1.1,0.1-1.6,0.3c-0.5,0.2-0.9,0.5-1.3,0.9c-0.4,0.4-0.6,0.8-0.9,1.3
			c-0.2,0.5-0.3,1.1-0.4,1.6H205.7z"/>
		<path fill="#FFFFFF" d="M211.1,118c0.1,0.1,0.3,0.3,0.6,0.4c0.3,0.1,0.5,0.2,0.9,0.2c0.5,0,0.9-0.2,1.1-0.5
			c0.3-0.3,0.5-0.8,0.8-1.5l0.9-2.3l-5-11h1.2l4.3,9.6l3.7-9.6h1.2l-5.5,13.8c-0.1,0.2-0.2,0.5-0.4,0.8c-0.1,0.3-0.3,0.6-0.5,0.8
			c-0.2,0.3-0.5,0.5-0.8,0.6c-0.3,0.2-0.7,0.3-1.1,0.3c-0.5,0-0.9-0.1-1.2-0.2c-0.3-0.1-0.6-0.3-0.8-0.5L211.1,118z"/>
		<path fill="#FFFFFF" d="M229.7,114.7c-0.8,0-1.5-0.2-2.2-0.5c-0.7-0.3-1.3-0.7-1.8-1.3c-0.5-0.5-0.9-1.2-1.2-1.9
			c-0.3-0.7-0.4-1.5-0.4-2.3c0-0.8,0.1-1.6,0.4-2.3c0.3-0.7,0.7-1.3,1.2-1.9c0.5-0.5,1.1-1,1.8-1.3c0.7-0.3,1.4-0.5,2.2-0.5
			c0.8,0,1.5,0.2,2.2,0.5c0.7,0.3,1.3,0.7,1.8,1.3c0.5,0.5,0.9,1.2,1.2,1.9c0.3,0.7,0.4,1.5,0.4,2.3c0,0.8-0.1,1.6-0.4,2.3
			c-0.3,0.7-0.7,1.3-1.2,1.9c-0.5,0.5-1.1,1-1.8,1.3S230.5,114.7,229.7,114.7z M229.7,113.7c0.6,0,1.3-0.1,1.8-0.4
			c0.6-0.3,1.1-0.6,1.5-1c0.4-0.4,0.7-0.9,1-1.5c0.2-0.6,0.4-1.2,0.4-1.9c0-0.6-0.1-1.3-0.4-1.9c-0.2-0.6-0.6-1.1-1-1.6
			c-0.4-0.5-0.9-0.8-1.5-1.1c-0.6-0.3-1.2-0.4-1.8-0.4c-0.7,0-1.3,0.1-1.8,0.4c-0.6,0.3-1,0.6-1.5,1c-0.4,0.4-0.7,0.9-1,1.5
			s-0.4,1.2-0.4,1.9c0,0.7,0.1,1.3,0.4,1.9c0.2,0.6,0.6,1.1,1,1.5c0.4,0.5,0.9,0.8,1.5,1.1C228.5,113.6,229.1,113.7,229.7,113.7z"/>
		<path fill="#FFFFFF" d="M240.7,105.7c0-0.3,0-0.6,0-0.8c0-0.2,0-0.4,0-0.6c0-0.2,0-0.3,0-0.5s0-0.3,0-0.5h1c0,0.2,0,0.3,0,0.5
			c0,0.1,0,0.3,0,0.5c0,0.2,0,0.4,0,0.6c0,0.2,0,0.5,0,0.8c0.1-0.2,0.3-0.5,0.5-0.8s0.5-0.6,0.9-0.9c0.3-0.3,0.8-0.5,1.2-0.7
			c0.5-0.2,1-0.3,1.7-0.3c0.8,0,1.5,0.1,2,0.3c0.5,0.2,1,0.6,1.3,1c0.3,0.4,0.6,0.9,0.7,1.5c0.1,0.6,0.2,1.3,0.2,2v6.5h-1.1v-6.2
			c0-0.8-0.1-1.5-0.2-2.1c-0.1-0.5-0.4-1-0.6-1.3c-0.3-0.3-0.6-0.5-1-0.7c-0.4-0.1-0.9-0.2-1.4-0.2c-0.7,0-1.3,0.1-1.8,0.4
			c-0.5,0.3-0.9,0.7-1.3,1.1c-0.3,0.5-0.6,1-0.8,1.5c-0.2,0.6-0.3,1.1-0.3,1.6v5.7h-1.1V105.7z"/>
		<path fill="#FFFFFF" d="M264.6,114.4c0-0.2,0-0.4,0-0.6c0-0.2,0-0.4,0-0.6s0-0.5,0-0.7c-0.2,0.4-0.6,0.8-1,1.1
			c-0.3,0.3-0.8,0.5-1.3,0.8c-0.5,0.2-1.1,0.4-1.9,0.4c-0.9,0-1.6-0.2-2.2-0.4c-0.6-0.3-1.1-0.7-1.6-1.2c-0.4-0.5-0.7-1.1-0.9-1.8
			c-0.2-0.7-0.3-1.5-0.3-2.3c0-0.9,0.1-1.7,0.4-2.5c0.3-0.7,0.7-1.4,1.2-1.9c0.5-0.5,1.1-0.9,1.8-1.2c0.7-0.3,1.5-0.4,2.3-0.4
			c0.5,0,0.9,0.1,1.3,0.2c0.4,0.1,0.8,0.2,1.1,0.4c0.4,0.2,0.7,0.3,1,0.5v-5.8h1.1v13.8c0,0.3,0,0.6,0,0.9c0,0.3,0,0.5,0,0.7
			c0,0.3,0,0.5,0,0.7H264.6z M264.5,105.3c-0.2-0.2-0.5-0.4-0.8-0.6c-0.3-0.2-0.6-0.3-1.1-0.4c-0.4-0.1-0.9-0.2-1.5-0.2
			c-0.6,0-1.1,0.1-1.7,0.3c-0.5,0.2-1,0.5-1.5,0.9c-0.4,0.4-0.8,0.9-1,1.5c-0.3,0.6-0.4,1.4-0.4,2.3c0,0.6,0.1,1.2,0.2,1.8
			c0.1,0.6,0.4,1.1,0.7,1.5c0.3,0.4,0.7,0.8,1.2,1c0.5,0.3,1.1,0.4,1.8,0.4c0.7,0,1.3-0.1,1.8-0.4c0.5-0.3,0.9-0.6,1.2-0.9
			c0.3-0.4,0.6-0.8,0.7-1.2c0.2-0.4,0.2-0.8,0.2-1.1V105.3z"/>
		<path fill="#FFFFFF" d="M279.2,104.3h-2.2v-1h2.2v-3.7h1.1v3.7h3.7v1h-3.7v6.4c0,0.7,0,1.2,0.1,1.6c0.1,0.4,0.2,0.7,0.4,0.9
			c0.2,0.2,0.4,0.3,0.6,0.4c0.2,0.1,0.5,0.1,0.8,0.1c0.4,0,0.8-0.1,1-0.2c0.3-0.1,0.6-0.4,0.9-0.7l0.7,0.7c-0.3,0.4-0.7,0.7-1.1,1
			c-0.4,0.2-0.9,0.3-1.6,0.3c-0.4,0-0.8-0.1-1.2-0.2c-0.4-0.1-0.7-0.3-0.9-0.6c-0.3-0.3-0.5-0.7-0.6-1.1c-0.1-0.5-0.2-1.1-0.2-1.8
			V104.3z"/>
		<path fill="#FFFFFF" d="M289.2,98.3h1.1v7.2c0.1-0.2,0.3-0.5,0.5-0.8c0.2-0.3,0.5-0.6,0.9-0.8c0.4-0.3,0.8-0.5,1.2-0.6
			c0.5-0.2,1-0.3,1.6-0.3c0.8,0,1.5,0.1,2,0.3c0.5,0.2,1,0.6,1.3,1c0.3,0.4,0.6,0.9,0.7,1.5c0.1,0.6,0.2,1.3,0.2,2v6.5h-1.1v-6.2
			c0-0.8-0.1-1.5-0.2-2.1c-0.1-0.5-0.4-1-0.6-1.3c-0.3-0.3-0.6-0.5-1-0.7c-0.4-0.1-0.9-0.2-1.4-0.2c-0.7,0-1.3,0.1-1.8,0.4
			c-0.5,0.3-0.9,0.7-1.3,1.1c-0.3,0.5-0.6,1-0.8,1.5c-0.2,0.6-0.3,1.1-0.3,1.6v5.7h-1.1V98.3z"/>
		<path fill="#FFFFFF" d="M314.1,112.8c-0.5,0.6-1.1,1.1-2,1.4c-0.8,0.3-1.7,0.5-2.6,0.5c-0.8,0-1.6-0.1-2.3-0.4
			c-0.7-0.3-1.3-0.7-1.8-1.2c-0.5-0.5-0.9-1.1-1.2-1.9c-0.3-0.7-0.4-1.5-0.4-2.4c0-0.8,0.1-1.6,0.4-2.3c0.3-0.7,0.6-1.3,1.1-1.9
			c0.5-0.5,1-1,1.7-1.3c0.7-0.3,1.4-0.5,2.2-0.5c0.8,0,1.5,0.1,2.1,0.4c0.7,0.3,1.2,0.7,1.7,1.2c0.5,0.5,0.8,1.2,1.1,1.9
			c0.3,0.8,0.4,1.6,0.4,2.6h-9.5c0,0.6,0.1,1.2,0.4,1.8c0.2,0.6,0.5,1,0.9,1.5c0.4,0.4,0.9,0.7,1.4,1c0.5,0.2,1.1,0.4,1.8,0.4
			c0.3,0,0.7,0,1.1-0.1c0.4-0.1,0.7-0.2,1.1-0.3c0.3-0.1,0.6-0.3,0.9-0.5c0.3-0.2,0.5-0.4,0.7-0.7L314.1,112.8z M313.4,108.2
			c-0.1-1.4-0.6-2.4-1.3-3.1c-0.7-0.7-1.7-1.1-2.8-1.1c-0.6,0-1.1,0.1-1.6,0.3c-0.5,0.2-0.9,0.5-1.3,0.9c-0.4,0.4-0.6,0.8-0.9,1.3
			c-0.2,0.5-0.3,1.1-0.4,1.6H313.4z"/>
		<path fill="#FFFFFF" d="M326.6,105.7c0-0.3,0-0.6,0-0.8c0-0.2,0-0.4,0-0.6c0-0.2,0-0.3,0-0.5s0-0.3,0-0.5h1c0,0.2,0,0.3,0,0.5
			c0,0.1,0,0.3,0,0.5s0,0.4,0,0.6c0,0.2,0,0.5,0,0.8c0.1-0.2,0.3-0.5,0.5-0.8c0.2-0.3,0.5-0.6,0.8-0.9c0.3-0.3,0.7-0.5,1.2-0.7
			c0.5-0.2,1-0.3,1.6-0.3c1.1,0,1.9,0.2,2.5,0.7s1,1.1,1.2,1.9v0c0.1-0.2,0.3-0.5,0.5-0.8c0.3-0.3,0.6-0.6,0.9-0.9
			c0.4-0.3,0.8-0.5,1.3-0.7c0.5-0.2,1-0.3,1.6-0.3c0.7,0,1.4,0.1,1.9,0.3c0.5,0.2,0.9,0.6,1.2,1c0.3,0.4,0.5,0.9,0.6,1.5
			c0.1,0.6,0.2,1.3,0.2,2v6.5h-1.1v-6.2c0-0.8-0.1-1.5-0.2-2.1c-0.1-0.5-0.3-1-0.6-1.3c-0.3-0.3-0.6-0.5-0.9-0.7
			c-0.4-0.1-0.8-0.2-1.3-0.2c-0.5,0-1.1,0.1-1.5,0.3c-0.5,0.2-0.9,0.5-1.3,0.9c-0.4,0.4-0.6,0.8-0.9,1.3c-0.2,0.5-0.3,1-0.3,1.5v6.4
			h-1.1v-6.2c0-0.8-0.1-1.5-0.2-2.1c-0.1-0.5-0.3-1-0.6-1.3s-0.6-0.5-0.9-0.7c-0.4-0.1-0.8-0.2-1.3-0.2c-0.7,0-1.2,0.1-1.7,0.4
			c-0.5,0.3-0.9,0.7-1.3,1.1c-0.3,0.5-0.6,1-0.8,1.5c-0.2,0.6-0.3,1.1-0.3,1.6v5.7h-1.1V105.7z"/>
		<path fill="#FFFFFF" d="M357.1,114.4c0-0.1,0-0.3,0-0.5c0-0.2,0-0.4,0-0.6c0-0.2,0-0.5,0-0.8c-0.3,0.4-0.6,0.8-1,1.1
			c-0.3,0.3-0.7,0.5-1.1,0.7c-0.4,0.2-0.8,0.3-1.1,0.3c-0.4,0.1-0.7,0.1-1,0.1c-0.5,0-0.9-0.1-1.4-0.1c-0.5-0.1-0.9-0.3-1.3-0.5
			c-0.4-0.3-0.7-0.6-0.9-1c-0.2-0.4-0.4-1-0.4-1.6c0-0.5,0.1-1,0.3-1.5c0.2-0.5,0.5-0.9,0.8-1.2c0.4-0.3,0.9-0.6,1.5-0.8
			c0.6-0.2,1.4-0.3,2.2-0.3c0.7,0,1.3,0,1.8,0.1c0.5,0,1,0.1,1.4,0.2v-0.6c0-0.6-0.1-1.1-0.2-1.5s-0.4-0.7-0.7-1
			c-0.3-0.2-0.6-0.4-1.1-0.5c-0.4-0.1-0.9-0.1-1.5-0.1c-0.9,0-1.6,0.1-2.2,0.4c-0.5,0.3-1,0.5-1.2,0.8l-0.6-0.8
			c0.3-0.3,0.8-0.6,1.5-0.9c0.7-0.3,1.5-0.5,2.5-0.5c1.4,0,2.5,0.3,3.3,0.9c0.8,0.6,1.2,1.6,1.2,3v5.1c0,0.3,0,0.6,0,0.9
			c0,0.3,0,0.5,0,0.7c0,0.3,0,0.5,0,0.7H357.1z M357,108.7c-0.3-0.1-0.8-0.2-1.3-0.2c-0.5-0.1-1.2-0.1-1.9-0.1c-0.8,0-1.5,0.1-2,0.3
			c-0.5,0.2-0.9,0.5-1.1,0.8c-0.3,0.3-0.4,0.6-0.5,1c-0.1,0.3-0.1,0.7-0.1,0.9c0,0.8,0.3,1.4,0.8,1.8c0.5,0.4,1.2,0.6,2.1,0.6
			c0.5,0,1.1-0.1,1.5-0.3c0.5-0.2,0.9-0.5,1.3-0.8s0.6-0.7,0.9-1.1c0.2-0.4,0.3-0.8,0.3-1.2V108.7z"/>
		<path fill="#FFFFFF" d="M363.8,105.7c0-0.3,0-0.6,0-0.8c0-0.2,0-0.4,0-0.6c0-0.2,0-0.3,0-0.5s0-0.3,0-0.5h1c0,0.2,0,0.3,0,0.5
			c0,0.1,0,0.3,0,0.4c0,0.1,0,0.3,0,0.5s0,0.4,0,0.7c0.1-0.1,0.2-0.3,0.4-0.6c0.2-0.3,0.4-0.5,0.8-0.8c0.3-0.3,0.7-0.5,1.2-0.7
			c0.5-0.2,1.1-0.3,1.7-0.3c0.9,0,1.6,0.2,2.2,0.5c0.6,0.3,1.1,0.7,1.6,1.3c0.4,0.5,0.7,1.2,0.9,1.9c0.2,0.7,0.3,1.5,0.3,2.3
			c0,0.9-0.1,1.7-0.4,2.4c-0.3,0.7-0.7,1.3-1.2,1.8c-0.5,0.5-1.1,0.9-1.8,1.2c-0.7,0.3-1.4,0.4-2.2,0.4c-0.8,0-1.5-0.1-2-0.3
			c-0.6-0.2-1-0.4-1.5-0.7v5.5h-1.1V105.7z M364.9,112.5c0.1,0.1,0.3,0.2,0.5,0.3c0.2,0.1,0.4,0.3,0.7,0.4c0.3,0.1,0.6,0.2,1,0.3
			c0.4,0.1,0.8,0.1,1.3,0.1c0.6,0,1.2-0.1,1.7-0.3c0.5-0.2,1-0.5,1.4-0.9c0.4-0.4,0.7-0.9,1-1.5c0.2-0.6,0.4-1.3,0.4-2
			c0-0.6-0.1-1.3-0.2-1.9c-0.1-0.6-0.4-1.1-0.7-1.6c-0.3-0.5-0.7-0.8-1.2-1.1c-0.5-0.3-1.1-0.4-1.8-0.4c-0.5,0-0.9,0.1-1.3,0.2
			c-0.4,0.1-0.7,0.3-1.1,0.6c-0.3,0.3-0.6,0.5-0.8,0.9c-0.2,0.3-0.4,0.7-0.5,1c-0.1,0.3-0.2,0.6-0.2,1s-0.1,0.8-0.1,1.2V112.5z"/>
	</g>
	<path fill="#FFFFFF" d="M102.3,75c-10.7,0-20.2-5.8-20.2-19.3V31.2h11.5v23.5c0,6.8,3.7,9.6,8.7,9.6c4.9,0,8.7-2.8,8.7-9.6V31.2
		h11.5v24.5C122.5,69.2,113,75,102.3,75z"/>
	<path fill="#FFFFFF" d="M162.9,41.4V57c0,5.3,2.9,7.3,6.4,7.3c2.8,0,5.7-1.4,8-2.8l4.2,9c-3.7,2.6-8.1,4.5-14.1,4.5
		c-10.6,0-16-5.9-16-17V41.4h-8.2V31.2h8.2V18.5h11.5v12.7h15.5v10.2H162.9z"/>
	<path fill="#FFFFFF" d="M201.7,73.9V10.4h11.5v63.4H201.7z"/>
	<path fill="#FFFFFF" d="M238.5,73.9V31.2H250v42.7H238.5z"/>
	<path fill="#FFFFFF" d="M315.6,46.7v27.2h-11.5V50.4c0-6.2-3-9.6-8.3-9.6c-4.9,0-9,3.2-9,9.6v23.4h-11.5V31.2h11.2v5
		c3-4.5,7.7-6.2,12.6-6.2C308.7,30,315.6,36.8,315.6,46.7z"/>
	<path fill="#FFFFFF" d="M375.6,52.5c0,1.4-0.1,2.9-0.2,3.9h-30.3c1.1,6.2,5.5,8.9,11,8.9c3.7,0,7.7-1.5,10.8-4.1l6.7,7.4
		c-4.9,4.4-11,6.5-18.2,6.5c-13,0-22.2-8.9-22.2-22.3S342.1,30,354.9,30C367.2,30,375.6,39.2,375.6,52.5z M345.2,48.5h18.9
		c-1.1-5.5-4.3-8.5-9.3-8.5C349.3,40,346.2,43.2,345.2,48.5z"/>
	<path fill="#FFFFFF" d="M412.2,39.6c-4.4,0-6.6,1.5-6.6,3.9c0,2.5,3.1,3.1,7,3.7l3.8,0.6c9.3,1.4,14.4,5.5,14.4,12.8
		c0,8.8-7.2,14.5-19.6,14.5c-5.8,0-13.4-1.1-19-5l4.5-8.7c3.6,2.4,8.1,4.2,14.5,4.2c5.3,0,7.9-1.5,7.9-4c0-2.1-2.1-3.2-7.1-3.9
		l-3.5-0.5c-9.8-1.4-14.8-5.7-14.8-12.9c0-8.8,6.8-14,18-14c6.8,0,12.2,1.2,17.8,4.1l-3.9,8.9C422.4,41.5,417,39.6,412.2,39.6z"/>
	<path fill="#FFFFFF" d="M59.9,52.5c0,12.9-9.8,22.5-23.1,22.5c-13.3,0-23-9.6-23-22.5S23.5,30,36.8,30C50.1,30,59.9,39.6,59.9,52.5
		z M25.4,52.5c0,6.9,4.8,11.8,11.3,11.8c6.5,0,11.4-4.8,11.4-11.8s-4.8-11.8-11.4-11.8C30.3,40.7,25.4,45.6,25.4,52.5z"/>
	<path fill="#FFFFFF" d="M57.1,33.1l2.8,0l0-0.7l-3.8,0l0.3,3.8l0.7,0l-0.2-2.4c3.1,3.3,5.3,7.2,6.4,11.3H50.9
		c-1.4-5.9-4.1-10.4-6.5-13.5c-3-3.9-6.3-6.6-7.3-7l0,0l-0.2,0c-7.3,0.1-14.4,3.1-19.5,8.2C12.2,38,9.3,45,9.3,52.5
		c0,7.2,2.6,13.9,7.5,19.1l-2.6,0l0,0.7l3.8,0l-0.3-3.8l-0.7,0l0.2,2.6c-3-3.2-5.1-7-6.3-11.1h11.9c1.4,5.5,4,9.8,6.3,12.8
		c3.6,4.8,6.7,6.9,6.8,7l0.5,0.4l0.5,0c0,0,0,0,0,0c7.6,0,14.7-2.8,19.8-7.9C67.6,61.5,67.7,44,57.1,33.1z M17.9,33.2
		c4.6-4.6,10.9-7.5,17.5-7.9c-1.4,0.9-3.8,2.7-6.2,5.6c-2.6,3-5.5,7.7-6.7,14.1H11C12.2,40.6,14.6,36.5,17.9,33.2z M10.8,59.4
		c-0.6-2.2-0.9-4.6-0.9-6.9c0-2.3,0.3-4.6,0.9-6.8h11.6c-0.3,1.8-0.5,3.8-0.5,5.9c0,2.8,0.3,5.4,0.9,7.8H10.8z M36.5,79.5
		c-1.1-0.8-3.9-3.4-6.7-7c-2.2-2.9-4.7-7.1-6.1-12.4h12.9V79.5z M36.5,59.4h-13c-0.6-2.4-0.9-5-0.9-7.8c0-2.1,0.2-4.1,0.5-5.9h13.4
		V59.4z M36.5,45H23.2c1.2-6.2,4.1-10.7,6.6-13.7c2.8-3.3,5.7-5.4,6.8-6.1V45z M37.1,25.3c1.1,0.8,3.9,3.1,6.7,6.7
		c2.3,3,5,7.4,6.3,13.1H37.1V25.3z M37.1,45.7h13.2c0.5,2.1,0.7,4.4,0.7,6.9c0,2.5-0.3,4.7-0.7,6.8H37.1V45.7z M37.1,60.1h13.1
		c-1.3,5.8-4,10.2-6.4,13c-2.8,3.4-5.7,5.6-6.7,6.3V60.1z M56.3,71.8c-4.7,4.7-11.2,7.4-18.2,7.6c1.4-0.9,3.8-2.9,6.3-5.9
		c2.4-3,5.2-7.5,6.6-13.5h12.3C62,64.4,59.7,68.5,56.3,71.8z M51.1,59.4c0.4-2.1,0.7-4.4,0.7-6.8c0-2.5-0.3-4.8-0.7-6.9h12.4
		c1.2,4.5,1.1,9.3,0,13.8v-0.1H51.1z"/>
</g>
</svg>
